<?xml version="1.0" encoding="UTF-8"?>
<svg id="Layer_1" xmlns="http://www.w3.org/2000/svg" version="1.1" viewBox="0 0 512 512">
  <!-- Generator: Adobe Illustrator 29.6.1, SVG Export Plug-In . SVG Version: 2.1.1 Build 9)  -->
  <defs>
    <style>
      .st0 {
        fill: red;
      }
    </style>
  </defs>
  <path class="st0" d="M315.5,196.5c-16.5-16.5-36.3-24.8-59.5-24.8s-43,8.3-59.5,24.8c-16.5,16.5-24.8,36.3-24.8,59.5s8.3,43,24.8,59.5c16.5,16.5,36.3,24.8,59.5,24.8s43-8.3,59.5-24.8c16.5-16.5,24.8-36.3,24.8-59.5s-8.3-43-24.8-59.5Z"/>
  <path d="M486.2,158.4c-13.2-30.3-31-56.7-53.5-79.2-22.5-22.5-48.8-40.3-79.2-53.5-30.3-13.2-62.9-19.8-97.6-19.8s-74,8.1-108,24.3c-34,16.2-62.9,39.1-86.5,68.8V33.8H6v166.7h121.7c6.9-15.8,16.6-30.4,29.5-43.2,4.7-4.7,9.8-8.4,14.9-12.3h-75.8c19-25.9,42.4-46.3,70.1-61.1s57.6-22.2,89.6-22.2c54.2,0,100.1,18.9,137.9,56.6,37.7,37.7,56.6,83.7,56.6,137.9s-18.9,100.1-56.6,137.9-83.7,56.6-137.9,56.6-91.1-15.7-127.4-47.2c-36.3-31.5-57.8-71.3-64.2-119.4H7.4c6.9,63.4,34,116.3,81.3,158.7,47.2,42.4,103,63.5,167.4,63.5s67.2-6.6,97.6-19.8c30.3-13.2,56.7-31,79.2-53.5,22.5-22.5,40.3-48.8,53.5-79.2,13.2-30.3,19.8-62.9,19.8-97.6s-6.6-67.2-19.8-97.6Z"/>
</svg>